# xmcd CD database file
#
# Track frame offsets:
#	150
#	13587
#	28312
#	45023
#	60839
#	74962
#	90582
#	107857
#	123234
#	139851
#	155837
#	168985
#	183637
#	198119
#	214997
#
# Disc length: 3234 seconds
#
# Revision: 1
# Processed by: cddbd v1.5.1PL2 Copyright (c) Steve Scherf et al.
# Submitted via: CDex 1.51
#
DISCID=d40ca00f
DTITLE=Uwe Busse - Herzgeflüster
DYEAR=2006
DGENRE=Deutscher Schlager
TTITLE0=Es lebe die Tour
TTITLE1=Hand aufs Herz
TTITLE2=Genau wie Du
TTITLE3=Herzgeflüster
TTITLE4=Donnerwetter
TTITLE5=Kleine Nachtmusik und Tränen
TTITLE6=Grand Hotel Mama
TTITLE7=Sternenträumer
TTITLE8=Caruso singt nicht mehr
TTITLE9=Russisches Roulette
TTITLE10=Die Welt weint tausend Tränen
TTITLE11=Liebesbrief mit 1000 roten Rosen
TTITLE12=Janinas Herz
TTITLE13=König der Welt (Gott hat viele Namen)
TTITLE14=Uwe Busse Hit Medley
EXTD=YEAR: 2006
EXTT0=
EXTT1=
EXTT2=
EXTT3=
EXTT4=
EXTT5=
EXTT6=
EXTT7=
EXTT8=
EXTT9=
EXTT10=
EXTT11=
EXTT12=
EXTT13=
EXTT14=
PLAYORDER=
